<mxfile host="app.diagrams.net" agent="Mozilla/5.0 (Windows NT 10.0; Win64; x64) AppleWebKit/537.36 (KHTML, like Gecko) Chrome/128.0.0.0 Safari/537.36" version="24.7.6">
  <diagram name="第 1 页" id="WKj9sloA8bifTKguE6TD">
    <mxGraphModel dx="1562" dy="938" grid="1" gridSize="10" guides="1" tooltips="1" connect="1" arrows="1" fold="1" page="1" pageScale="1" pageWidth="827" pageHeight="1169" math="0" shadow="0">
      <root>
        <mxCell id="0" />
        <mxCell id="1" parent="0" />
        <mxCell id="L7A_i17nk-G8iqmZQJDQ-3" value="" style="edgeStyle=orthogonalEdgeStyle;rounded=0;orthogonalLoop=1;jettySize=auto;html=1;" edge="1" parent="1" source="L7A_i17nk-G8iqmZQJDQ-1" target="L7A_i17nk-G8iqmZQJDQ-2">
          <mxGeometry relative="1" as="geometry" />
        </mxCell>
        <mxCell id="L7A_i17nk-G8iqmZQJDQ-1" value="发起请求" style="rounded=0;whiteSpace=wrap;html=1;" vertex="1" parent="1">
          <mxGeometry x="145" y="30" width="120" height="60" as="geometry" />
        </mxCell>
        <mxCell id="L7A_i17nk-G8iqmZQJDQ-13" value="" style="edgeStyle=orthogonalEdgeStyle;rounded=0;orthogonalLoop=1;jettySize=auto;html=1;" edge="1" parent="1" source="L7A_i17nk-G8iqmZQJDQ-2" target="L7A_i17nk-G8iqmZQJDQ-6">
          <mxGeometry relative="1" as="geometry" />
        </mxCell>
        <mxCell id="L7A_i17nk-G8iqmZQJDQ-2" value="公网服务器&lt;div&gt;1.1.1.1:80&lt;/div&gt;" style="rounded=0;whiteSpace=wrap;html=1;" vertex="1" parent="1">
          <mxGeometry x="100" y="170" width="210" height="170" as="geometry" />
        </mxCell>
        <mxCell id="L7A_i17nk-G8iqmZQJDQ-12" style="edgeStyle=orthogonalEdgeStyle;rounded=0;orthogonalLoop=1;jettySize=auto;html=1;exitX=1;exitY=0.5;exitDx=0;exitDy=0;entryX=0;entryY=0.5;entryDx=0;entryDy=0;" edge="1" parent="1" source="L7A_i17nk-G8iqmZQJDQ-6" target="L7A_i17nk-G8iqmZQJDQ-10">
          <mxGeometry relative="1" as="geometry" />
        </mxCell>
        <mxCell id="L7A_i17nk-G8iqmZQJDQ-6" value="frp服务端" style="rounded=0;whiteSpace=wrap;html=1;" vertex="1" parent="1">
          <mxGeometry x="145" y="390" width="120" height="60" as="geometry" />
        </mxCell>
        <mxCell id="L7A_i17nk-G8iqmZQJDQ-8" value="内网服务器" style="rounded=0;whiteSpace=wrap;html=1;" vertex="1" parent="1">
          <mxGeometry x="520" y="170" width="210" height="170" as="geometry" />
        </mxCell>
        <mxCell id="L7A_i17nk-G8iqmZQJDQ-14" style="edgeStyle=orthogonalEdgeStyle;rounded=0;orthogonalLoop=1;jettySize=auto;html=1;exitX=0.5;exitY=0;exitDx=0;exitDy=0;entryX=0.5;entryY=1;entryDx=0;entryDy=0;" edge="1" parent="1" source="L7A_i17nk-G8iqmZQJDQ-10" target="L7A_i17nk-G8iqmZQJDQ-8">
          <mxGeometry relative="1" as="geometry" />
        </mxCell>
        <mxCell id="L7A_i17nk-G8iqmZQJDQ-10" value="frp客户端" style="rounded=0;whiteSpace=wrap;html=1;" vertex="1" parent="1">
          <mxGeometry x="565" y="390" width="120" height="60" as="geometry" />
        </mxCell>
      </root>
    </mxGraphModel>
  </diagram>
</mxfile>
